<?xml version="1.0" encoding="utf-8"?>
<!-- Generator: Adobe Illustrator 23.0.2, SVG Export Plug-In . SVG Version: 6.00 Build 0)  -->
<svg version="1.1" id="heart-15" xmlns="http://www.w3.org/2000/svg" xmlns:xlink="http://www.w3.org/1999/xlink" x="0px" y="0px"
	 viewBox="0 0 15 15" style="enable-background:new 0 0 15 15;" xml:space="preserve">
<style type="text/css">
	.st0{fill:#FF3B6B;}
</style>
<g>
	<path class="st0" d="M10.7,1.7c2.2,0,4.1,2.3,2.6,5.2c-1.1,2-3.9,4.8-5.5,6.2c-0.1,0.1-0.2,0.1-0.3,0.1c-0.1,0-0.2,0-0.3-0.1
		c-1.6-1.5-4.4-4.2-5.5-6.2C0.2,4,2.2,1.7,4.4,1.7c1.2,0,2.4,0.7,3.2,2.2C8.3,2.3,9.5,1.7,10.7,1.7 M10.7,1.1L10.7,1.1
		c-1.2,0-2.4,0.6-3.2,1.7C6.7,1.7,5.6,1.1,4.4,1.1c-1.3,0-2.5,0.7-3.2,1.8C0.4,4.1,0.4,5.6,1.2,7.1c1.1,2.1,4,4.9,5.6,6.4
		c0.2,0.2,0.4,0.3,0.7,0.3c0.3,0,0.5-0.1,0.7-0.3c1.6-1.5,4.5-4.3,5.6-6.4c0.8-1.5,0.8-3,0.1-4.3C13.2,1.8,12,1.1,10.7,1.1L10.7,1.1
		z"/>
</g>
</svg>
