<?xml version="1.0" encoding="utf-8"?>
<!-- Generator: Adobe Illustrator 23.0.2, SVG Export Plug-In . SVG Version: 6.00 Build 0)  -->
<svg version="1.1" id="marker-stroked-15" xmlns="http://www.w3.org/2000/svg" xmlns:xlink="http://www.w3.org/1999/xlink" x="0px"
	 y="0px" viewBox="0 0 15 15" style="enable-background:new 0 0 15 15;" xml:space="preserve">
<style type="text/css">
	.st0{fill:#FFFFFF;}
	.st1{fill:#FF4B4E;}
</style>
<path id="Layer_7_1_" class="st0" d="M7.5,15l-0.4-0.5c-1-1.2-4.9-6.6-4.9-9.2C2.1,2.5,4.3,0.2,7.1,0c0.1,0,0.3,0,0.4,0
	c2.8-0.1,5.2,2,5.3,4.8c0,0.2,0,0.3,0,0.4c0,2.2-2.7,6.1-4.7,8.9L7.5,15z"/>
<path id="Layer_7" class="st1" d="M7.5,14.9l-0.4-0.5c-1-1.2-4.9-6.6-4.9-9.2C2.1,2.5,4.2,0.1,7,0c0.1,0,0.3,0,0.4,0
	c2.8-0.1,5.2,2,5.3,4.8c0,0.2,0,0.3,0,0.4c0,2.2-2.7,6.1-4.7,8.9L7.5,14.9z M7.5,1C5.2,0.9,3.3,2.6,3.2,4.8c0,0.2,0,0.3,0,0.5
	c0,1.8,2.8,6,4.3,8c1.2-1.7,4.3-6,4.3-8C11.9,3,10.2,1.1,7.9,1C7.8,1,7.6,1,7.5,1L7.5,1z"/>
</svg>
