<svg width="30" height="28" viewBox="0 0 30 28" fill="none" xmlns="http://www.w3.org/2000/svg">
<rect x="5.30957" y="17.3" width="1" height="5.1" fill="#EC4E6E"/>
<rect x="3.25977" y="20.3501" width="1" height="5.1" transform="rotate(-90 3.25977 20.3501)" fill="#EC4E6E"/>
<path d="M12 0V0.34232C10.5857 0.51348 8.82857 1.06975 7.71428 2.65298C6.81428 3.8511 6.29688 7.18872 6.29688 8.68636H5.3125C5.3125 7.18872 4.58393 3.76552 3.72679 2.5674C2.74107 1.15533 1.67143 0.55627 -1.90735e-06 0.34232V0H12ZM26.5714 16.7737C26.5714 21.0955 25.2429 24.3047 22.2429 25.9307C20.5714 26.8293 18.1714 27.3 15.3429 27.3C12.4714 27.3 10.2 26.273 9.72857 25.9735V25.674C11.9571 25.9735 14.5286 25.5028 16.0286 24.6042C18.1286 23.3205 18.8571 21.4378 18.8571 17.9718V5.30596C18.8571 1.54044 17.7429 0.72743 15.4714 0.34232V0H30V0.34232C27.5143 0.72743 26.5714 1.75439 26.5714 5.30596V16.7737Z" fill="white"/>
</svg>
