<svg width="200" height="182" viewBox="0 0 200 182" fill="none" xmlns="http://www.w3.org/2000/svg">
<path d="M56.7178 135.697V139.169H41.3117V154.683H37.8399V139.169H22.4339V135.697H37.8399V120.399H41.3117V135.697H56.7178Z" fill="#68E184"/>
<path fill-rule="evenodd" clip-rule="evenodd" d="M80 2.28213V0H0V2.28213C11.1429 3.70846 20 7.7022 26.5714 17.116C32.2857 25.1034 37.1428 47.9248 37.1428 57.9091H37.1504V91H40.3004V57H40.2989C40.588 46.6324 45.6045 25.4398 51.4286 17.6865C58.8571 7.13167 70.5714 3.4232 80 2.28213ZM148.286 172.871C168.286 162.031 177.143 140.636 177.143 111.824V35.373C177.143 11.6959 183.429 4.84953 200 2.28213V0H103.143V2.28213C118.286 4.84953 125.714 10.2696 125.714 35.373V119.812C125.714 142.919 120.857 155.47 106.857 164.028C96.8571 170.019 79.7143 173.157 64.8571 171.16V173.157C68 175.154 83.1428 182 102.286 182C121.143 182 137.143 178.862 148.286 172.871Z" fill="white"/>
</svg>
